<?xml version="1.0" encoding="UTF-8" standalone="no"?>
<!DOCTYPE svg PUBLIC "-//W3C//DTD SVG 1.1//EN"
 "http://www.w3.org/Graphics/SVG/1.1/DTD/svg11.dtd">
<!-- Generated by graphviz version 2.44.2~dev.20201112.1525 (20201112.1525)
 -->
<!-- Pages: 1 -->
<svg width="223pt" height="586pt"
 viewBox="0.00 0.00 223.04 585.58" xmlns="http://www.w3.org/2000/svg" xmlns:xlink="http://www.w3.org/1999/xlink">
<g id="graph0" class="graph" transform="scale(1 1) rotate(0) translate(4 581.58)">
<polygon fill="white" stroke="transparent" points="-4,4 -4,-581.58 219.04,-581.58 219.04,4 -4,4"/>
<!-- A -->
<g id="node1" class="node">
<title>A</title>
<ellipse fill="none" stroke="black" cx="67.44" cy="-342.38" rx="57.38" ry="57.38"/>
<ellipse fill="none" stroke="black" cx="67.44" cy="-342.38" rx="61.39" ry="61.39"/>
<text text-anchor="middle" x="67.44" y="-338.68" font-family="Times New Roman,serif" font-size="14.00">Study Board</text>
</g>
<!-- B -->
<g id="node2" class="node">
<title>B</title>
<ellipse fill="none" stroke="black" cx="143.44" cy="-158.59" rx="67.68" ry="67.68"/>
<ellipse fill="none" stroke="black" cx="143.44" cy="-158.59" rx="71.69" ry="71.69"/>
<text text-anchor="middle" x="143.44" y="-154.89" font-family="Times New Roman,serif" font-size="14.00">Tech enthusiast</text>
</g>
<!-- A&#45;&gt;B -->
<g id="edge1" class="edge">
<title>A:&#45;&gt;B:</title>
<path fill="none" stroke="black" d="M85.91,-283.77C90.09,-271.9 94.7,-259.55 99.44,-248.19 101.69,-242.81 104.12,-237.3 106.64,-231.78"/>
<polygon fill="black" stroke="black" points="109.9,-233.07 110.94,-222.53 103.55,-230.12 109.9,-233.07"/>
<text text-anchor="middle" x="103.94" y="-251.99" font-family="Times New Roman,serif" font-size="14.00">+</text>
</g>
<!-- B&#45;&gt;A -->
<g id="edge2" class="edge">
<title>B:&#45;&gt;A:</title>
<path fill="none" stroke="black" d="M122.37,-227.05C118.09,-239.2 113.37,-251.67 108.44,-263.19 106.17,-268.51 103.67,-273.97 101.06,-279.41"/>
<polygon fill="black" stroke="black" points="97.86,-277.99 96.59,-288.5 104.14,-281.07 97.86,-277.99"/>
<text text-anchor="middle" x="117.94" y="-251.99" font-family="Times New Roman,serif" font-size="14.00">+</text>
</g>
<!-- L -->
<g id="node3" class="node">
<title>L</title>
<ellipse fill="none" stroke="black" cx="60.44" cy="-18" rx="60.39" ry="18"/>
<text text-anchor="middle" x="60.44" y="-14.3" font-family="Times New Roman,serif" font-size="14.00">Employability</text>
</g>
<!-- B&#45;&gt;L -->
<g id="edge3" class="edge">
<title>B:&#45;&gt;L:</title>
<path fill="none" stroke="black" d="M107.04,-96.8C96.11,-78.55 84.69,-59.49 75.9,-44.81"/>
<polygon fill="black" stroke="black" points="78.67,-42.62 70.53,-35.84 72.67,-46.22 78.67,-42.62"/>
<text text-anchor="middle" x="92.94" y="-57.8" font-family="Times New Roman,serif" font-size="14.00">&#45;</text>
</g>
<!-- L&#45;&gt;A -->
<g id="edge4" class="edge">
<title>L:&#45;&gt;A:</title>
<path fill="none" stroke="black" d="M58.2,-36.01C56.51,-49.74 54.34,-69.58 53.44,-87 50.18,-150.56 49.46,-166.67 53.44,-230.19 54.28,-243.57 55.69,-257.81 57.29,-271.47"/>
<polygon fill="black" stroke="black" points="53.86,-272.28 58.54,-281.79 60.81,-271.44 53.86,-272.28"/>
<text text-anchor="middle" x="57.94" y="-154.89" font-family="Times New Roman,serif" font-size="14.00">+</text>
</g>
<!-- I -->
<g id="node4" class="node">
<title>I</title>
<ellipse fill="none" stroke="black" cx="81.44" cy="-559.58" rx="61.99" ry="18"/>
<text text-anchor="middle" x="81.44" y="-555.88" font-family="Times New Roman,serif" font-size="14.00">innovative law</text>
</g>
<!-- I&#45;&gt;A -->
<g id="edge7" class="edge">
<title>I:&#45;&gt;A:</title>
<path fill="none" stroke="black" d="M59.07,-542.68C43.86,-530.41 25.02,-511.95 16.44,-490.58 4.87,-461.71 13.98,-429.08 27.54,-401.88"/>
<polygon fill="black" stroke="black" points="30.71,-403.36 32.28,-392.88 24.52,-400.1 30.71,-403.36"/>
<text text-anchor="middle" x="20.94" y="-468.88" font-family="Times New Roman,serif" font-size="14.00">+</text>
</g>
<!-- I&#45;&gt;B -->
<g id="edge8" class="edge">
<title>I:&#45;&gt;B:</title>
<path fill="none" stroke="black" d="M100.4,-542.25C113.52,-529.65 129.93,-510.95 137.44,-490.58 167.49,-409.16 164.18,-308.64 156.41,-239.87"/>
<polygon fill="black" stroke="black" points="159.84,-239.06 155.18,-229.54 152.88,-239.88 159.84,-239.06"/>
<text text-anchor="middle" x="158.94" y="-425.38" font-family="Times New Roman,serif" font-size="14.00">+</text>
</g>
<!-- f -->
<g id="node5" class="node">
<title>f</title>
<ellipse fill="none" stroke="black" cx="81.44" cy="-472.58" rx="47.39" ry="18"/>
<text text-anchor="middle" x="81.44" y="-468.88" font-family="Times New Roman,serif" font-size="14.00">Law firms</text>
</g>
<!-- I&#45;&gt;f -->
<g id="edge5" class="edge">
<title>I:&#45;&gt;f:</title>
<path fill="none" stroke="black" d="M81.44,-541.38C81.44,-529.74 81.44,-514.13 81.44,-500.81"/>
<polygon fill="black" stroke="black" points="84.94,-500.75 81.44,-490.75 77.94,-500.75 84.94,-500.75"/>
<text text-anchor="middle" x="85.94" y="-512.38" font-family="Times New Roman,serif" font-size="14.00">+</text>
</g>
<!-- f&#45;&gt;A -->
<g id="edge6" class="edge">
<title>f:&#45;&gt;A:</title>
<path fill="none" stroke="black" d="M79.59,-454.55C78.4,-443.72 76.78,-428.87 75.11,-413.57"/>
<polygon fill="black" stroke="black" points="78.57,-413.04 74.01,-403.48 71.61,-413.8 78.57,-413.04"/>
<text text-anchor="middle" x="81.94" y="-425.38" font-family="Times New Roman,serif" font-size="14.00">+</text>
</g>
</g>
</svg>
