<?xml version="1.0" encoding="UTF-8" standalone="no"?>
<!DOCTYPE svg PUBLIC "-//W3C//DTD SVG 1.1//EN"
 "http://www.w3.org/Graphics/SVG/1.1/DTD/svg11.dtd">
<!-- Generated by graphviz version 2.44.2~dev.20201112.1525 (20201112.1525)
 -->
<!-- Title: G Pages: 1 -->
<svg width="172pt" height="142pt"
 viewBox="0.00 0.00 172.00 142.00" xmlns="http://www.w3.org/2000/svg" xmlns:xlink="http://www.w3.org/1999/xlink">
<g id="graph0" class="graph" transform="scale(1 1) rotate(0) translate(4 138)">
<title>G</title>
<polygon fill="white" stroke="transparent" points="-4,4 -4,-138 168,-138 168,4 -4,4"/>
<g id="clust1" class="cluster">
<title>cluster1</title>
<defs>
<linearGradient id="l_0" gradientUnits="userSpaceOnUse" x1="43" y1="-83" x2="43" y2="-8" >
<stop offset="0" style="stop-color:blue;stop-opacity:1.;"/>
<stop offset="1" style="stop-color:cyan;stop-opacity:1.;"/>
</linearGradient>
</defs>
<polygon fill="url(#l_0)" stroke="black" points="8,-8 8,-83 78,-83 78,-8 8,-8"/>
<text text-anchor="middle" x="43" y="-67.8" font-family="Times New Roman,serif" font-size="14.00" fill="white">identity</text>
</g>
<g id="clust2" class="cluster">
<title>cluster2</title>
<defs>
<linearGradient id="l_1" gradientUnits="userSpaceOnUse" x1="121" y1="-83" x2="121" y2="-8" >
<stop offset="0" style="stop-color:blue;stop-opacity:1.;"/>
<stop offset="1" style="stop-color:cyan;stop-opacity:1.;"/>
</linearGradient>
</defs>
<polygon fill="url(#l_1)" stroke="black" points="86,-8 86,-83 156,-83 156,-8 86,-8"/>
<text text-anchor="middle" x="121" y="-67.8" font-family="Times New Roman,serif" font-size="14.00" fill="white">identity</text>
</g>
<!-- A -->
<g id="node1" class="node">
<title>A</title>
<polygon fill="none" stroke="black" points="61,-130.5 25,-130.5 25,-94.5 61,-94.5 61,-130.5"/>
<text text-anchor="middle" x="43" y="-108.8" font-family="Times New Roman,serif" font-size="14.00">test</text>
</g>
<!-- asdf -->
<g id="node2" class="node">
<title>asdf</title>
<defs>
<linearGradient id="l_2" gradientUnits="userSpaceOnUse" x1="43" y1="-16" x2="43" y2="-52" >
<stop offset="0" style="stop-color:red;stop-opacity:1.;"/>
<stop offset="1" style="stop-color:yellow;stop-opacity:1.;"/>
</linearGradient>
</defs>
<polygon fill="url(#l_2)" stroke="black" points="70,-52 16,-52 16,-16 70,-16 70,-52"/>
<text text-anchor="middle" x="43" y="-30.3" font-family="Times New Roman,serif" font-size="14.00">asdf</text>
</g>
<!-- A&#45;&gt;asdf -->
<g id="edge1" class="edge">
<title>A:&#45;&gt;asdf:</title>
<path fill="none" stroke="black" d="M48.76,-94.14C49.76,-84.69 50,-72.77 49.49,-62.12"/>
<polygon fill="black" stroke="black" points="52.97,-61.73 48.73,-52.03 45.99,-62.26 52.97,-61.73"/>
</g>
<!-- asdf&#45;&gt;A -->
<g id="edge2" class="edge">
<title>asdf:&#45;&gt;A:</title>
<path fill="none" stroke="black" d="M37.27,-52.03C36.26,-61.42 36,-73.32 36.49,-84"/>
<polygon fill="black" stroke="black" points="33.01,-84.42 37.24,-94.14 40,-83.91 33.01,-84.42"/>
</g>
<!-- A1 -->
<g id="node3" class="node">
<title>A1</title>
<polygon fill="none" stroke="black" points="142.5,-134 99.5,-134 99.5,-91 142.5,-91 142.5,-134"/>
<text text-anchor="middle" x="121" y="-108.8" font-family="Times New Roman,serif" font-size="14.00">test1</text>
</g>
<!-- asdf1 -->
<g id="node4" class="node">
<title>asdf1</title>
<defs>
<linearGradient id="l_3" gradientUnits="userSpaceOnUse" x1="121" y1="-16" x2="121" y2="-52" >
<stop offset="0" style="stop-color:red;stop-opacity:1.;"/>
<stop offset="1" style="stop-color:yellow;stop-opacity:1.;"/>
</linearGradient>
</defs>
<polygon fill="url(#l_3)" stroke="black" points="148,-52 94,-52 94,-16 148,-16 148,-52"/>
<text text-anchor="middle" x="121" y="-30.3" font-family="Times New Roman,serif" font-size="14.00">asdf1</text>
</g>
<!-- A1&#45;&gt;asdf1 -->
<g id="edge3" class="edge">
<title>A1:&#45;&gt;asdf1:</title>
<path fill="none" stroke="black" d="M127.06,-91C127.79,-82.25 127.94,-71.92 127.51,-62.52"/>
<polygon fill="black" stroke="black" points="130.99,-62.16 126.77,-52.44 124.01,-62.67 130.99,-62.16"/>
</g>
<!-- asdf1&#45;&gt;A1 -->
<g id="edge4" class="edge">
<title>asdf1:&#45;&gt;A1:</title>
<path fill="none" stroke="black" d="M115.23,-52.44C114.35,-60.86 114.06,-71.22 114.37,-80.89"/>
<polygon fill="black" stroke="black" points="110.88,-81.21 114.94,-91 117.87,-80.82 110.88,-81.21"/>
</g>
</g>
</svg>
